<svg xmlns="http://www.w3.org/2000/svg" viewBox="0 0 320 240" role="img">
  <title>Pack of kitten tuna pouches</title>
  <rect width="320" height="240" fill="#EFF3F0"/>
  <ellipse cx="160" cy="196" rx="104" ry="8" fill="#0E4D3C" opacity=".06"/>
  <g transform="rotate(-10 96 110)">
    <rect x="58" y="58" width="76" height="104" rx="10" fill="#0E4D3C"/>
    <rect x="62" y="62" width="68" height="16" rx="7" fill="#08342A"/>
    <rect x="66" y="118" width="60" height="14" rx="7" fill="#F2A104"/>
  </g>
  <g transform="rotate(10 224 110)">
    <rect x="186" y="58" width="76" height="104" rx="10" fill="#F2A104"/>
    <rect x="190" y="62" width="68" height="16" rx="7" fill="#C98400"/>
    <rect x="194" y="118" width="60" height="14" rx="7" fill="#0E4D3C"/>
  </g>
  <rect x="126" y="80" width="84" height="112" rx="12" fill="#CFE3D9"/>
  <rect x="122" y="74" width="84" height="112" rx="12" fill="#FBFCFA"/>
  <rect x="130" y="80" width="68" height="14" rx="7" fill="#DCE5E0"/>
  <ellipse cx="164" cy="126" rx="22" ry="13" fill="#0E4D3C"/>
  <path d="M186 126l14-11v22z" fill="#0E4D3C"/>
  <circle cx="155" cy="122" r="2.5" fill="#FBFCFA"/>
  <rect x="130" y="154" width="68" height="12" rx="6" fill="#F2A104"/>
</svg>
