<svg xmlns="http://www.w3.org/2000/svg" viewBox="0 0 320 240" role="img">
  <title>Feather wand teaser cat toy</title>
  <rect width="320" height="240" fill="#EFF3F0"/>
  <ellipse cx="160" cy="196" rx="88" ry="8" fill="#0E4D3C" opacity=".06"/>
  <path d="M70 180L196 72" stroke="#0E4D3C" stroke-width="10" stroke-linecap="round" fill="none"/>
  <path d="M66 184l40-34" stroke="#F2A104" stroke-width="17" stroke-linecap="round" fill="none"/>
  <path d="M196 72q24 12 28 32" stroke="#08342A" stroke-width="4" stroke-linecap="round" fill="none"/>
  <path d="M226 100c20-14 38-12 46-4-14 12-32 14-46 4z" fill="#F2A104"/>
  <path d="M232 101c14-4 26-5 34-3" stroke="#C98400" stroke-width="3" stroke-linecap="round" fill="none"/>
  <path d="M224 104c14 12 30 20 42 18-8-14-24-24-42-18z" fill="#0E4D3C"/>
  <path d="M228 107c12 8 24 14 33 15" stroke="#CFE3D9" stroke-width="3" stroke-linecap="round" fill="none"/>
  <path d="M222 106c0 18 8 34 20 42 4-16-2-32-20-42z" fill="#CFE3D9"/>
  <path d="M224 111c2 13 7 24 14 31" stroke="#0E4D3C" stroke-width="3" stroke-linecap="round" fill="none"/>
  <circle cx="224" cy="104" r="7" fill="#08342A"/>
</svg>
