<svg xmlns="http://www.w3.org/2000/svg" viewBox="0 0 320 240" role="img">
  <title>Retractable dog leash with coiled cord</title>
  <rect width="320" height="240" fill="#EFF3F0"/>
  <ellipse cx="160" cy="196" rx="104" ry="8" fill="#0E4D3C" opacity=".06"/>
  <circle cx="68" cy="140" r="26" fill="none" stroke="#0E4D3C" stroke-width="14"/>
  <rect x="76" y="102" width="96" height="76" rx="26" fill="#0E4D3C"/>
  <rect x="90" y="116" width="42" height="48" rx="14" fill="#CFE3D9"/>
  <circle cx="146" cy="118" r="9" fill="#F2A104"/>
  <rect x="166" y="130" width="16" height="20" rx="6" fill="#08342A"/>
  <path d="M182 138c30-8 52 4 54 22c2 16-20 26-34 16c-12-8-14-24 2-30c18-7 34 8 44 26" stroke="#F2A104" stroke-width="7" fill="none" stroke-linecap="round"/>
  <g transform="rotate(30 251 172)">
    <rect x="240" y="164" width="22" height="17" rx="5" fill="#08342A"/>
  </g>
</svg>
